<svg xmlns="http://www.w3.org/2000/svg" viewBox="0 0 200 200" width="200" height="200">
  <!-- background -->
  <rect x="0" y="0" width="200" height="200" rx="36" fill="#f5f0eb"/>
  <!-- floor -->
  <rect x="12" y="142" width="176" height="46" rx="5" fill="#e8ddd2"/>
  <!-- wall -->
  <rect x="12" y="12" width="176" height="130" rx="5" fill="#fdf8f3"/>
  <!-- window -->
  <rect x="28" y="22" width="66" height="84" rx="6" fill="#c8e6f5"/>
  <rect x="31" y="22" width="63" height="84" rx="4" fill="#ddf0fb"/>
  <line x1="63" y1="22" x2="63" y2="106" stroke="#b8d8ee" stroke-width="2"/>
  <line x1="31" y1="64" x2="94" y2="64" stroke="#b8d8ee" stroke-width="2"/>
  <rect x="31" y="22" width="61" height="40" rx="2" fill="#fff5cc" opacity="0.45"/>
  <!-- curtains -->
  <path d="M28 22 Q22 60 26 106" stroke="#f2c4d8" stroke-width="5" fill="none" stroke-linecap="round"/>
  <path d="M94 22 Q100 60 96 106" stroke="#f2c4d8" stroke-width="5" fill="none" stroke-linecap="round"/>
  <!-- plant pot -->
  <rect x="112" y="80" width="9" height="26" rx="3" fill="#c8b89a"/>
  <!-- plant leaves -->
  <ellipse cx="117" cy="72" rx="16" ry="18" fill="#a8d5a2"/>
  <ellipse cx="106" cy="82" rx="11" ry="13" fill="#b8e0b3"/>
  <ellipse cx="128" cy="82" rx="11" ry="13" fill="#98cc93"/>
  <ellipse cx="117" cy="66" rx="10" ry="12" fill="#b4ddb0"/>
  <!-- sofa body -->
  <rect x="18" y="124" width="156" height="34" rx="10" fill="#f2b5c5"/>
  <!-- sofa back -->
  <rect x="18" y="112" width="156" height="20" rx="8" fill="#f7c8d4"/>
  <!-- sofa arms -->
  <rect x="18" y="112" width="22" height="46" rx="7" fill="#f0a8bc"/>
  <rect x="152" y="112" width="22" height="46" rx="7" fill="#f0a8bc"/>
  <!-- pillows -->
  <rect x="50" y="116" width="30" height="18" rx="7" fill="#fde8c0"/>
  <rect x="118" y="116" width="30" height="18" rx="7" fill="#c5daf5"/>
  <!-- rug -->
  <rect x="30" y="153" width="130" height="14" rx="5" fill="#e8c4d0"/>
  <rect x="38" y="156" width="114" height="8" rx="3" fill="#f0d0dc" opacity="0.6"/>
  <!-- side table -->
  <rect x="150" y="130" width="22" height="4" rx="2" fill="#d4c4b0"/>
  <rect x="157" y="134" width="4" height="18" rx="2" fill="#d4c4b0"/>
  <!-- lamp -->
  <ellipse cx="161" cy="128" rx="14" ry="7" fill="#fde8a0"/>
  <rect x="158" y="110" width="5" height="20" rx="2" fill="#d4c4b0"/>
  <ellipse cx="161" cy="109" rx="14" ry="7" fill="#fde8a0"/>
  <!-- wall art -->
  <rect x="110" y="22" width="36" height="28" rx="3" fill="#e8e0f5"/>
  <ellipse cx="128" cy="36" rx="10" ry="8" fill="#c5aee8" opacity="0.6"/>
  <rect x="112" y="24" width="32" height="24" rx="2" fill="none" stroke="#d0c0e8" stroke-width="1"/>
</svg>
